REM MD5 d300fadb44a96a8df4de9569e28c8e21
FILE "PlayStation Underground Volume 2.3 (USA) (Disc 2).bin" BINARY
  TRACK 01 MODE2/2352
    INDEX 01 00:00:00
  TRACK 02 AUDIO
    INDEX 00 64:49:48
    INDEX 01 64:51:48
  TRACK 03 AUDIO
    INDEX 00 68:07:27
    INDEX 01 68:09:27
REM LEADOUT 68:15:23
